<svg width="24" height="20" viewBox="0 0 24 20" fill="none" xmlns="http://www.w3.org/2000/svg">
<path d="M11.77 9.24H9.956V6.202H12.108C13.278 6.202 13.942 6.724 13.942 7.668C13.942 8.676 13.169 9.24 11.768 9.24H11.77ZM12.094 10.446H9.957V13.794H12.188C13.647 13.794 14.42 13.209 14.42 12.109C14.42 11.009 13.625 10.446 12.094 10.446ZM24 9.39V10.608C22.872 10.716 22.183 11.552 21.774 12.876C21.367 14.195 21.311 15.813 21.354 17.062C21.399 18.362 20.386 19.562 19.017 19.562H4.985C3.615 19.562 2.602 18.362 2.648 17.062C2.691 15.813 2.635 14.195 2.228 12.876C1.818 11.552 1.128 10.716 0 10.608V9.39C1.128 9.282 1.819 8.446 2.227 7.122C2.635 5.803 2.691 4.185 2.647 2.936C2.602 1.636 3.615 0.435997 4.985 0.435997H19.017C20.387 0.435997 21.399 1.636 21.354 2.936C21.311 4.185 21.367 5.803 21.774 7.122C22.183 8.446 22.872 9.282 24 9.39ZM16.073 12.207C16.073 10.853 15.12 9.874 13.705 9.719V9.662C14.745 9.493 15.561 8.527 15.561 7.449C15.561 5.912 14.348 4.911 12.499 4.911H8.339V15.083H12.52C14.738 15.083 16.073 13.997 16.073 12.207Z" fill="#7952B3"/>
</svg>
