<svg width="22" height="24" viewBox="0 0 22 24" fill="none" xmlns="http://www.w3.org/2000/svg">
<path d="M10.998 24C10.677 24 10.357 23.916 10.076 23.753L7.14 22.016C6.702 21.771 6.916 21.684 7.06 21.633C7.645 21.43 7.763 21.383 8.388 21.029C8.453 20.992 8.539 21.006 8.606 21.046L10.862 22.385C10.944 22.43 11.059 22.43 11.134 22.385L19.929 17.309C20.011 17.262 20.063 17.168 20.063 17.071V6.92101C20.063 6.82201 20.01 6.72901 19.926 6.67901L11.135 1.60701C11.054 1.56001 10.946 1.56001 10.864 1.60701L2.075 6.68001C1.99 6.72901 1.936 6.82501 1.936 6.92101V17.071C1.936 17.168 1.99 17.26 2.075 17.306L4.484 18.698C5.791 19.352 6.592 18.582 6.592 17.808V7.78701C6.592 7.64501 6.706 7.53401 6.848 7.53401H7.963C8.102 7.53401 8.218 7.64601 8.218 7.78701V17.808C8.218 19.553 7.268 20.553 5.614 20.553C5.106 20.553 4.705 20.553 3.588 20.002L1.28 18.675C0.710002 18.346 0.358002 17.73 0.358002 17.071V6.92101C0.358002 6.26201 0.711002 5.64601 1.28 5.31801L10.075 0.236006C10.632 -0.0789941 11.371 -0.0789941 11.923 0.236006L20.717 5.31801C21.287 5.64701 21.641 6.26201 21.641 6.92101V17.071C21.641 17.73 21.287 18.344 20.717 18.675L11.923 23.753C11.643 23.916 11.324 24 10.998 24ZM18.099 13.993C18.099 12.093 16.815 11.587 14.112 11.23C11.381 10.869 11.103 10.682 11.103 10.043C11.103 9.51501 11.338 8.81001 13.361 8.81001C15.168 8.81001 15.834 9.19901 16.108 10.417C16.132 10.532 16.237 10.616 16.355 10.616H17.496C17.567 10.616 17.634 10.585 17.682 10.535C17.73 10.481 17.756 10.412 17.749 10.339C17.572 8.24101 16.178 7.26301 13.361 7.26301C10.853 7.26301 9.357 8.32101 9.357 10.096C9.357 12.021 10.845 12.553 13.252 12.791C16.132 13.073 16.355 13.494 16.355 14.06C16.355 15.043 15.566 15.462 13.713 15.462C11.386 15.462 10.874 14.878 10.702 13.72C10.682 13.596 10.576 13.505 10.449 13.505H9.312C9.171 13.505 9.058 13.617 9.058 13.758C9.058 15.24 9.864 17.006 13.713 17.006C16.501 17.007 18.099 15.91 18.099 13.993Z" fill="#5FA04E"/>
</svg>
