<svg width="24" height="24" viewBox="0 0 24 24" fill="none" xmlns="http://www.w3.org/2000/svg">
<path d="M0 0V7.5H7.5V0H0ZM8.25 0V7.5H15.748V0H8.25ZM16.5 0V7.5H24V0H16.5ZM8.25 8.25V15.75H15.748V8.25H8.25ZM16.5 8.25V15.75H24V8.25H16.5ZM0 16.5V24H7.5V16.5H0ZM8.25 16.5V24H15.748V16.5H8.25ZM16.5 16.5V24H24V16.5H16.5Z" fill="black"/>
<path d="M0 0H7.5V3.5V7.5H3.5H0V0Z" fill="#F9AD00"/>
<path d="M0 0H7.5V3.5V7.5H3.5H0V0Z" fill="#F9AD00"/>
<path d="M8 0H16V3.5V7.5H11.5H8V0Z" fill="#F9AD00"/>
<path d="M16.5 0H24V7.5H20H16.5V3.5V0Z" fill="#F9AD00"/>
<path d="M16.5 8H18.5H20.5H24V16H16.5V11.5V8Z" fill="#F9AD00"/>
</svg>
