<svg width="27" height="24" viewBox="0 0 27 24" fill="none" xmlns="http://www.w3.org/2000/svg">
<path d="M13.5 0C9.89989 0 7.64994 2.66672 6.74983 7.99967C8.1 5.33294 9.67503 4.3333 11.4749 4.99973C12.502 5.37997 13.236 6.48419 14.0486 7.70598C15.3721 9.69626 16.904 11.9997 20.2502 11.9997C23.8499 11.9997 26.1002 9.33303 27 3.99958C25.6502 6.66631 24.0751 7.66645 22.2749 7.00002C21.2482 6.61977 20.5142 5.51556 19.7015 4.29377C18.378 2.30349 16.8459 0 13.5 0ZM6.74983 11.9997C3.15006 11.9997 0.899775 14.6665 0 19.9999C1.34983 17.3332 2.92486 16.333 4.72509 17C5.75181 17.3807 6.48581 18.4844 7.29848 19.7057C8.62197 21.696 10.1541 24 13.5 24C17.1001 24 19.3501 21.3333 20.2502 15.9998C18.9 18.6666 17.325 19.6667 15.5251 18.9998C14.498 18.62 13.764 17.5153 12.9514 16.294C11.6279 14.3037 10.096 11.9997 6.74983 11.9997Z" fill="#06B6D4"/>
</svg>
